<svg width="120" height="219" viewBox="0 0 120 219" xmlns="http://www.w3.org/2000/svg" xmlns:xlink="http://www.w3.org/1999/xlink">
    <defs>
        <path id="5bhh4iya5a" d="M0 0h10.627v5.978H0z"/>
    </defs>
    <g fill="none" fill-rule="evenodd">
        <path d="m80.49 207.487.002-.003c0-2.99-17.979-5.413-40.156-5.413-22.178 0-40.157 2.424-40.157 5.413 0 2.95 17.51 5.347 39.282 5.41l-.001.003c0 2.989 17.978 5.412 40.156 5.412 22.177 0 40.156-2.423 40.156-5.412 0-2.95-17.509-5.347-39.281-5.41" fill="#E2E1DE" opacity=".5"/>
        <path d="m73.505 3.469.004-1.702L72.728.16c-.194-.221-.605-.213-.785.016l-.66 1.585-.003 1.703c-.617-.002-1.625.48-1.626 1.078 0 .597.5 1.082 1.117 1.084h.505l-.108 60.934c-.006 3.254-1.732 5.958-4.203 5.895-1.915-.048-3.582-1.68-3.858-4.337a1.173 1.173 0 0 0-1.175-1.044h-.045c-.707-.001-1.263.595-1.176 1.274.481 3.78 3.476 6.49 6.323 6.496 2.225.004 4.052-1.024 5.118-2.88 1.32-2.3 1.24-4.83 1.245-7.354.004-2.392.009-8.038.013-10.43l.019-10.02.022-11.423.02-11.39.02-9.918.01-5.798h.347c.618.002 1.12-.482 1.12-1.08.002-.596-.845-1.082-1.463-1.083" fill="#292949"/>
        <path d="m52.84 44.464.446-2.714A63.81 63.81 0 0 1 63.91 15.601l6.886-9.875c-16.722.677-31.078 10.565-38.121 24.735a44.31 44.31 0 0 0-4.262 14.028c3.62-1.075 7.812-1.688 12.296-1.68 4.385.009 8.522.61 12.13 1.655M88.77 39.073l1.167 5.83h.44c3.828-1.257 8.362-1.984 13.243-1.975 4.864.009 9.423.748 13.292 2.013a44.315 44.315 0 0 0-6.011-17.568C103.12 14.407 88.94 5.717 72.717 5.686c-.478 0-.954.008-1.428.022l5.471 8.033c6.71 8.286 9.783 16.672 12.01 25.332" fill="#5D66D3"/>
        <path d="m53.286 41.75-.446 2.714.118.035c4.634-2.05 10.98-3.219 17.989-3.205 7.38.014 14.036 1.335 18.727 3.608h.263l-1.166-5.829c-2.228-8.66-5.3-17.046-12.01-25.332L71.288 5.71c-.165.004-.328.01-.492.017l-6.886 9.875a63.808 63.808 0 0 0-10.625 26.15" fill="#474EBB"/>
        <path d="m52.84 44.464-.016.094.134-.06c-.04-.01-.079-.022-.118-.034" fill="#FFF"/>
        <path fill="#D67086" d="m33.651 79.451-3.122 3.87-6.663 32.483 4.789 8.329 5.83-1.458 5.007-16.984z"/>
        <g transform="translate(46.374 204.022)">
            <mask id="qu71189q1b" fill="#fff">
                <use xlink:href="#5bhh4iya5a"/>
            </mask>
            <path fill="#292949" mask="url(#qu71189q1b)" d="M5.314 0 0 4.151l.498 1.827 9.631-1.827.498-3.985z"/>
        </g>
        <path fill="#292949" d="m90.841 201.526 6.112 4.267-1.18 3.15-9.841-3.15-.58-3.815z"/>
        <path fill="#474EBB" d="m44.013 133.566 2.361 32.67 4.33 37.786 6.298.197 3.149-48.808 2.755-25.19z"/>
        <path fill="#474EBB" d="m55.058 128.053 10.402 27.974 19.589 46.025 6.667-.598L83 150.829l-7.96-28.057z"/>
        <path d="M49.346 71.33c.087.002.173.006.259.01 4.115.2 9.097 5.601 11.983 8.79 7.45 8.228 12.654 17.658 16.549 28.201 2.097 5.677 3.948 11.447 5.684 17.249.48 1.603 3.847 16.262 4.663 16.366-8.374-1.07-16.806-1.906-25.147-1.327-8.341.579-16.637 2.624-23.788 7.023-3.662-18.813-6.369-38.295-7.256-57.359-.106-2.28-.453-4.632-.239-6.898.248-2.61 1.534-3.786 2.994-5.768.5-.679 1.004-1.362 1.616-1.923 3.224-2.958 8.372-4.505 12.682-4.365" fill="#D67086"/>
        <path d="M41.367 137.762c10.092-1.741 26.445-5.959 36.537-7.7-5.282-17.535-13.688-37.014-23.489-52.417-1.777-2.793-3.998-5.708-7.18-6.371-3.408-.71-9.383 1.536-10.045 5.349-.969 5.577 1.042 13.269 1.662 18.908 1.404 12.76.074 29.624 2.515 42.23" fill="ivory"/>
        <path d="M44.15 59.405c-3.981-6.927-12.8-2.427-13.372 4.5-.377 4.564 4.06 9.59 8.646 9.944.093 1.097.233 2.19.42 3.276l3.478-.949c.359-.098.77-.243.886-.596.07-.214.008-.447-.054-.663l-.629-2.19c.078-.054.156-.11.233-.169 1.909-1.456 2.777-3.993 2.667-6.391-.11-2.399-1.08-4.68-2.275-6.762" fill="#EACDB0"/>
        <path d="M43.895 61.75c1.922 1.844 2.1 4.797 2.227 7.334.112 2.25.447 3.593 2.835 2.959 1.345-.357 3.745-.966 4.314-2.44.43-1.116-1.15-3.03-1.987-3.68-.64-.497-1.598-.415-2.225-.929-.258-.211-.434-.505-.593-.798a13.567 13.567 0 0 1-1.387-3.83c-.18-.908-.272-1.846-.63-2.699-.522-1.237-2.085-2.175-3.097-3.03-1.883-1.592-6.158-2.807-7.707.037-.352.647-.346 1.425-.297 2.16.03.44.076.89.276 1.282.8 1.562 2.355 1.078 3.724 1.301 1.687.276 3.32 1.155 4.547 2.333" fill="#292949"/>
        <path d="M32.812 68.05c.49 1.146 1.711 2.065 1.593 3.306-.053.553-.375 1.037-.593 1.548-.598 1.394-.389 3.102.527 4.31l-6.74 3.224c-.338.162-.696.328-1.07.305-.802-.048-1.283-.885-1.617-1.614-.657-1.438-1.33-2.992-1.038-4.546.136-.72.475-1.39.608-2.11.643-3.465-3.51-6.77-2.238-10.056.567-1.467 2.053-2.336 3.059-3.545 1.753-2.108 2.003-5.207 3.89-7.197 3.561-3.759 10.55-.681 10.014 4.538-.437 4.257-8.368 7.22-6.395 11.837" fill="#292949"/>
        <path d="M83.925 140.778s-17.002-61.286-34.59-68.801l-.009-.01v.006l-.078-.035s-3.309.321-3.267.422l-2.165 19.287-7.282-14.958.394 36.016 3.66 34.321 9.526-6.965 15.734-.038 18.077.755z" fill="#D67086"/>
        <path d="M39.29 77.87c-.394.012-1.182-2.755-.788-3.149.394-.393 2.165-.196 3.74-.59 1.574-.394 2.558-1.574 2.755 0 .196 1.574.787 3.542-5.708 3.74" fill="ivory"/>
        <path fill="#D67086" d="m50.544 71.515 4.359-.218 24.411 18.09-2.833 7.411-8.5-2.833-14.522-17.753z"/>
        <path fill="#D67086" d="m78.006 97.234 3.488-6.103-6.285-19.953-4.14 1.677-1.127 19.584z"/>
        <path fill="#BABCBE" d="m91.254 147.92-59.279-9.33 6.562-41.685 32.234-11.82 27.044 21.151z"/>
        <path d="M112.96 107.214 99.96 97.066l-21.02-16.41c-1.692-1.321-3.356-2.695-5.085-3.97-1.095-.808-2.31-.956-3.56-.49-.798.297-1.588.62-2.381.931L44.939 86.11c-6.213 2.43-12.475 4.762-18.648 7.292-.103.042-.206.08-.31.12-1.557.61-2.367 2.458-1.757 4.017.612 1.563 2.451 2.369 4.016 1.757l15.119-5.911 23.984-9.378 3.877-1.516 11.783 9.2 21.184 16.538 4.85 3.785c1.319 1.03 3.286.877 4.361-.438 1.045-1.278.885-3.329-.439-4.362" fill="#353A85"/>
        <path fill="#FFFFF1" d="m55.066 140.952-14.454-2.275 4.383-27.844 14.454 2.275zM76.014 122.587l-7.862-1.238 1.055-6.705 7.863 1.238zM86.306 124.207l-7.863-1.238 1.056-6.705 7.862 1.238zM74.57 131.762l-7.863-1.237 1.056-6.705 7.862 1.237zM84.862 133.382l-7.863-1.237 1.056-6.705 7.862 1.237z"/>
        <path fill="#D67086" d="m24 115.85 8.792-3.724 26.594 15.626-2.132 4.343-28.532-8.05z"/>
        <path fill="#EACDB0" d="m58.842 128.86 4.264-2.292 3.593.058-.803 1.5 5.052 1.275-2.366 3.22-11.528-.576zM74.493 71.377l-.48-3.819-3.654-1.918-1.498 1.078.473 4.806 2.16 1.237z"/>
    </g>
</svg>
