<svg width="172" height="217" viewBox="0 0 172 217" xmlns="http://www.w3.org/2000/svg" xmlns:xlink="http://www.w3.org/1999/xlink">
    <defs>
        <path id="junfk1vj2a" d="M0 0h3.553v1.192H0z"/>
    </defs>
    <g fill="none" fill-rule="evenodd">
        <path d="m90.49 205.487.002-.003c0-2.99-17.979-5.413-40.156-5.413-22.178 0-40.157 2.424-40.157 5.413 0 2.95 17.51 5.347 39.282 5.41l-.001.003c0 2.989 17.978 5.412 40.156 5.412 22.177 0 40.156-2.423 40.156-5.412 0-2.95-17.509-5.347-39.281-5.41" fill="#E2E1DE" opacity=".5"/>
        <path d="m119.294 186.068 5.374 3.699s.074 2.441-2.09 5.074l-6.353-4.2 3.07-4.573z" fill="#FDA893"/>
        <path d="M121.837 192.882c-.8.938-1.148 1.664-.346 2.924.525.825 1.91 9.397 1.48 11.987-.431 2.589 1.523 2.778 2.596 2.67 1.074-.106 6.785-19.413 6.785-19.413s-5.417-2.59-7.36-2.609c-1.944-.018-2.05 2.7-3.155 4.441" fill="#0172D0"/>
        <path d="M78.033 133.024s.586 31.54 3.938 37.765c3.353 6.225 35.468 21.196 35.468 21.196s2.248-2.565 2.925-6.15c0 0-9.05-7.953-12.63-11.552-5.372-5.397-13.317-10.075-13.317-10.075l.816-35.838-17.2 4.654z" fill="#001F37"/>
        <path d="M119.239 184.143s2.342 1.43 2.998 2.195c0 0-1.817 6.036-4.926 6.759l-2.325-1.475s3.315-4.1 4.253-7.479" fill="#043C62"/>
        <path d="m25.836 174.738-3.366 5.59s-2.432.22-5.191-1.78l3.805-6.595 4.752 2.785z" fill="#FDA893"/>
        <path d="M19.004 177.43c-.806-.93-1.472-1.385-2.839-.781-.894.396-9.578.479-12.072-.335-2.496-.814-3.975 1.644-3.03 2.167 5.09 2.82 18.176 9.62 18.176 9.62s3.373-4.968 3.683-6.886c.31-1.918-2.363-2.431-3.918-3.785" fill="#0172D0"/>
        <path d="M79.67 115.097s-35.36 13.64-39.973 19.042c-4.613 5.401-20.063 38.86-20.063 38.86s2.594 4.72 6.255 3.783c0 0 7.882-11.611 10.672-16.078 2.917-4.67 9.755-10.26 13.067-20.325 0 0 18.885-.676 33.292-3.022 9.685-1.577 16.408-8.533 14.057-18.06a1.672 1.672 0 0 0-1.315-1.194l-15.992-3.006z" fill="#043C62"/>
        <path d="M27.71 175.163s-1.18 2.056-1.927 2.733c0 0-4.61-1.242-6.886-4.75l1.192-2.357s4.069 2.992 7.62 4.374" fill="#005982"/>
        <path d="M7.253 50.734c1.12-.25 5.742 2.548 5.942 2.595.2.047 1.14-.206 2.086-.268.946-.061 1.49.271 2.182 1.582.691 1.314 1.225 3.553 1.225 3.553.44.211.932.438 1.458.673a70.072 70.072 0 0 1-2.513 4.14c-.794-.517-1.51-.991-2.11-1.397-.469.153-.939.19-1.372.064a28.63 28.63 0 0 1-2.665-.929c-.336-.14-.53-.226-.53-.226s-.008.004-.018.012c-.108.044-.648.238-1.69-.11-1.173-.395-1.924-1.306-1.904-1.89.018-.59.72-.88.72-.88s-.475-.459-.41-1.075c.066-.62 1.171-1.151 1.171-1.151s-.47-.668.019-1.264c.462-.578 1.877.054 1.997.104-.199-.14-4.683-3.29-3.588-3.533" fill="#FDA893"/>
        <path d="M15.881 56.81a.261.261 0 0 0 .254-.37l-.51-1.112a.262.262 0 0 0-.366-.118c-.013.007-1.25.696-2.32.353-.328-.105-.543-.258-.623-.443-.089-.208.011-.419.012-.422a.262.262 0 0 0-.118-.348.26.26 0 0 0-.35.113 1.067 1.067 0 0 0-.028.853c.14.337.458.589.947.745.98.315 2.015-.058 2.483-.27l.398.866a.26.26 0 0 0 .221.153" fill="#FD896B"/>
        <path d="M10.937 60.533a.17.17 0 0 1 .02-.01s.192.085.53.222c.492-.509.567-1.153.632-1.694.054-.47.104-.877.372-1.159.278-.29.404-.622.444-.944.043-.31.004-.613-.058-.86a2.89 2.89 0 0 0-.07-.252c-.065-.192-.128-.317-.136-.333a.262.262 0 0 0-.466.237l.026.057c.066.148.22.558.193.988-.018.26-.101.526-.311.747-.388.407-.453.94-.514 1.458-.07.585-.136 1.144-.662 1.543" fill="#FD896B"/>
        <path d="M14.693 58.832a.261.261 0 0 0 .144-.49c-.015-.008-1.514-.859-1.574-2.343a.262.262 0 0 0-.523.02c.072 1.784 1.771 2.74 1.844 2.781.035.02.072.03.11.032" fill="#FD896B"/>
        <path d="M16.958 62.902s14.54 9.314 18.73 10.039c4.189.724 17.05-1.13 17.05-1.13a36.817 36.817 0 0 0 3.9-.478c3.896-.713 6.179-2.005 7.516-3.696 2.235-2.815.893-6.891-.37-10.12 0 0-2.028 1.606-12.213 3.744 0 0-14.48 2.816-15.26 2.963 0 0-10.905-3.539-16.942-6.218 0 0-1.306 4.151-2.411 4.896" fill="#0172D0"/>
        <path fill="#0056C5" d="m19.274 57.515 1.941.866-2.913 5.89-1.82-1.01z"/>
        <path d="M56.638 71.333c3.895-.713 6.179-2.005 7.516-3.696.861-3.592 1.399-7.541-.038-8.525 0 0-4.167 7.778-7.478 12.22" fill="#1C47C1"/>
        <path d="m103.41 123.644 13.95 30.39a2.386 2.386 0 0 0 3.163 1.172l49.469-22.708a2.387 2.387 0 0 0 1.172-3.163l-13.95-30.39a2.383 2.383 0 0 0-3.163-1.172l-49.469 22.709a2.385 2.385 0 0 0-1.172 3.162" fill="#001F37"/>
        <path d="m110.975 140.124-7.565-16.48a2.386 2.386 0 0 1 1.173-3.162l49.468-22.709a2.382 2.382 0 0 1 3.162 1.172l7.565 16.48-53.803 24.7z" fill="#043C62"/>
        <path d="m119.47 107.81 2.213 4.82 2.446-1.12-2.15-4.686 2.375-1.09.118-.053 1.442-.663.18-.081 6.26-2.876 2.152 4.686 2.445-1.124-2.213-4.82a2.545 2.545 0 0 0-3.37-1.251l-5.874 2.694-.44.202-.818.377-.17.077-3.348 1.537a2.545 2.545 0 0 0-1.248 3.37" fill="#FFAC00"/>
        <path d="m124.472 105.68 1.443-.662.178-.08a21.17 21.17 0 0 0-.599-2.691l-.44.2-.818.377a12.86 12.86 0 0 1 .236 2.856M133.709 105.013l.795 1.733 2.446-1.122-.796-1.733zM120.888 110.898l.795 1.733 2.446-1.122-.796-1.733zM150.148 119.23l2.21 4.814c.119.26.427.374.687.255l2.47-1.134a.517.517 0 0 0 .254-.686l-2.21-4.815a.519.519 0 0 0-.688-.259l-2.47 1.134a.518.518 0 0 0-.253.69" fill="#FA8A00"/>
        <path d="m150.148 119.23 1.104 2.405 3.412-1.566-1.105-2.405a.519.519 0 0 0-.688-.259l-2.47 1.134a.518.518 0 0 0-.253.69" fill="#FFAC00"/>
        <path d="m119.984 133.076 2.21 4.815c.12.26.427.373.687.254l2.473-1.135a.519.519 0 0 0 .256-.687l-2.212-4.815a.518.518 0 0 0-.688-.257l-2.473 1.135a.52.52 0 0 0-.253.69" fill="#FA8A00"/>
        <path d="m119.984 133.076 1.105 2.406 3.414-1.567-1.105-2.407a.518.518 0 0 0-.688-.257l-2.473 1.135a.52.52 0 0 0-.253.69" fill="#FFAC00"/>
        <path d="M121.966 103.867c.44-.165 1.143-.493 1.574-.722a.652.652 0 0 1 .1-.55c.326-.466.946-.272 1.094 0 .376.516.756 1.525.838 2.544l-.71.36s.646.801 1.216.663c.77-.186.67-1.023.67-1.023s.396.698.984.457c.588-.243.595-.95.595-.95 1.02.525 1.356-.508 1.356-.508s.972.378 1.16-.463c.192-.84-1.056-3.397-1.056-3.397-.996-2.378-2.423-5.005-3.852-6.684-.333-.736-.737-1.614-1.187-2.586-.99.697-2.022 1.335-3.015 2.025-.598.414-1.196.827-1.795 1.238a224.45 224.45 0 0 0 2.14 2.791c-.042.71-.058 1.474.016 2.028.154 1.205-.642 3.482-.128 4.777" fill="#FDA893"/>
        <path d="m96.629 76.047-12.945-5.295s-5.384-9.277-2.123-15.404c0 0 13.322 6.125 20.131 9.944 0 0 10.177 5.51 13.589 9.284l10.59 17.946s-3.177 3.648-5.354 3.412c-3.923-5.333-9.412-12.988-10.473-15.533l-13.415-4.354z" fill="#0172D0"/>
        <path d="M125.4 91.271c.693.506 1.317 1.27 1.431 2.233l-5.868 3.835c-.622-.562-1.141-1.282-1.57-2.143l6.007-3.925z" fill="#0056C5"/>
        <path d="M64.406 112.583c.73 3.996 0 9.018 0 9.018 5.28-2.096 13.154-6.04 20.677-2.733 6.106 2.685 12.055 1.152 12.055 1.152s.603-6.882-1.165-13.892c-1.758-6.969-3.498-15.69-4.111-19.128a684.712 684.712 0 0 0-1.511-8.204 369.19 369.19 0 0 0-.904-4.571h-.002c-1.701-8.281-2.449-15.386-3.76-16.47-3.703-3.064-12.26-6.08-12.26-6.08l-5.737 1.603s-6.135 4.741-6.073 8.194c.542 30.462 1.35 30.672 1.94 39.933.174 2.75.077 6.95.85 11.178" fill="#0172D0"/>
        <path d="m90.82 107.125.18-.013a.39.39 0 0 0-.058-.78l-.1.008c-.904.062-8.111.484-13.235-1.423-6.554-2.436-10.462-7.565-10.501-7.616a.39.39 0 1 0-.625.468c.163.218 4.077 5.36 10.853 7.88 5.213 1.94 12.247 1.56 13.486 1.476M72.777 107.527c0-.296.314-.483.574-.342 3.15 1.725 8.921 4.163 15.153 3.238a.39.39 0 1 1 .114.773c-.79.117-1.572.182-2.344.202-5.51.147-10.441-1.972-13.297-3.531a.385.385 0 0 1-.2-.34M79.095 69.575s4.199 4.647 11.045 8.133a407.365 407.365 0 0 0-.94-4.7c-.002-.003-.632-.226-.632-.226l-9.473-3.207z" fill="#1C47C1"/>
        <path fill="#FFF" d="m64.95 97.252 3.51 10.333 4.317-9.867-3.123-33.748-.084-1.316-1.58-.167-.156 1.783z"/>
        <path fill="#F1F1F1" d="m67.834 64.27.79.916 1.03-1.215-.083-1.317-1.582-.167z"/>
        <path fill="#FFF" d="m66.735 60.106 1.891 4.092 2.952-4.379-2.952-3.593z"/>
        <path d="M75.732 56.655a7.442 7.442 0 0 0 .078-3.63c-.078-.332-.174-.63-.29-.816-.728-1.169-2.385-.639-2.385-.639-.806 3.44-4.509 4.656-4.509 4.656l3.535 5.688s2.357-.764 3.571-5.26M66.406 53.12s-2.201 2.084-1.554 4.57l1.002 4.223 2.772-5.688s-1.497-1.483-2.22-3.105" fill="#1C47C1"/>
        <path d="m64.766 48.929 1.176 3.653.752 2.333c.134.414.754 1.411 1.188 1.393 2.685-.111 4.445-1.7 5.492-3.062l-.81-5.68s-1.48-.282-3.213-.32h-.001l-4.584 1.683z" fill="#FDA893"/>
        <path d="m64.766 48.929 1.176 3.653c2.796-1.62 3.687-4.521 3.886-5.32a24.864 24.864 0 0 0-.478-.016l-4.584 1.683z" fill="#FD896B"/>
        <path d="M58.998 35.604c-.267 1.885-.534 4.257-.532 6.194v.023l.001.003A15.213 15.213 0 0 0 58.6 43.9c.056.466.092.988.136 1.54l.006.088c.061.789.134 1.63.292 2.445l.001.006c.069.357.153.71.258 1.048.06.191.126.379.203.56.989 2.402 1.714 4.32 7.788.26 2.794-1.865 5.947-1.27 7.27-4.667l.023-.058c.004-.007.004-.011.004-.011.896-2.325 1.426-4.746 1.725-6.492a5.109 5.109 0 0 0-1.735-4.755c-3.73-3.169-8.313-3.123-11.433-2.56a5.091 5.091 0 0 0-4.139 4.3" fill="#FDA893"/>
        <path d="M59.292 49.026c.06.19.126.38.203.559.091.008.183.007.278 0 .686-.057 1.24-.453 1.265-.47a.269.269 0 0 0 .059-.372.266.266 0 0 0-.372-.06c-.005.005-.46.325-.996.37a1.646 1.646 0 0 1-.437-.027M70.01 43.951s-1.138-.275-1.749-1.293c0 0 .228 2.742 2.422 2.723l-.673-1.43z" fill="#FD896B"/>
        <path d="M57.882 31.752c-1.793-1.942-1.802-5.125.94-5.557 4.646-.733 7.298-1.65 10.115-1.75 2.816-.1 4.22 3.086 7.118 3.893 2.9.805 4.729 5.864 3.801 8.74-.14.43-.271.827-.401 1.203-1.28 3.713-3.188 7.174-5.588 10.284-.093.12-.18.236-.26.345-.172.232-1.613.583-3.003-1.717-1.198-1.98-1.118-3.41-1.118-3.41 2.765-.367 4.842-3.796 3.613-5.603 0 0-.542-.636-1.276-.707-1.626-.156-2.96.812-3.299 1.84-.339 1.028-.575 1.772-.575 1.772l-1.598.129s.785-2.63.825-3.584c.038-.955-1.41-.61-1.16-2.423.249-1.813 1.817-2.039 1.14-2.74-.677-.7-5.266-.143-6.6.605-1.335.747-2.674-1.32-2.674-1.32" fill="#20363C"/>
        <path d="M69.475 41.376c.1.02.204-.03.251-.126.704-1.413 2.366-1.724 2.382-1.727a.233.233 0 0 0-.08-.458c-.078.014-1.908.35-2.718 1.978a.233.233 0 0 0 .165.333" fill="#FD896B"/>
        <path d="M71.18 40.92a.233.233 0 0 0 .259-.316 2.119 2.119 0 0 0-.727-.853.232.232 0 1 0-.266.38c.406.283.56.645.561.648.03.076.097.127.172.142" fill="#FD896B"/>
        <path d="M60.15 38.822c-.097.513.088.98.415 1.042.326.063.67-.304.767-.817.098-.513-.087-.98-.413-1.042-.327-.062-.67.304-.769.817M63.988 36.635s-2.276-1.441-4.326-.983l-.01 1.09s2.825.294 4.118 1.127c.202-.38.298-.788.218-1.234" fill="#20363C"/>
        <path d="M58.76 38.558s-1.675 2.988-1.793 4.396c-.067.792 2.061 1.322 2.061 1.322l-.268-5.718z" fill="#FDA893"/>
        <path d="m58.735 45.439.006.089c.061.787.135 1.629.292 2.443l.184.011c1.974.074 2.622-1.537 2.833-2.416l-3.315-.127z" fill="#FFF"/>
        <path d="M44.17 1.677a2.61 2.61 0 0 1 2.607 2.607A2.61 2.61 0 0 1 44.17 6.89a2.61 2.61 0 0 1-2.607-2.607 2.61 2.61 0 0 1 2.607-2.607m0 6.406a3.803 3.803 0 0 0 3.799-3.8A3.802 3.802 0 0 0 44.17.486a3.802 3.802 0 0 0-3.798 3.799c0 2.095 1.704 3.8 3.798 3.8" fill="#0172D0"/>
        <path d="M30.495 15.004a2.61 2.61 0 0 1 2.607 2.607 2.61 2.61 0 0 1-2.607 2.607 2.61 2.61 0 0 1-2.607-2.607 2.61 2.61 0 0 1 2.607-2.607m0 6.407a3.803 3.803 0 0 0 3.798-3.8 3.802 3.802 0 0 0-3.798-3.798 3.802 3.802 0 0 0-3.799 3.798c0 2.095 1.704 3.8 3.799 3.8" fill="#FFAC00"/>
        <path d="M25.801 33.755c.33 0 .596-.267.596-.596V30.53a.596.596 0 1 0-1.192 0v2.628c0 .329.267.596.596.596M25.801 38.354c.33 0 .596-.267.596-.597V35.13a.596.596 0 1 0-1.192 0v2.627c0 .33.267.597.596.597" fill="#0172D0"/>
        <g transform="matrix(-1 0 0 1 25.07 33.549)">
            <mask id="59aktozk3b" fill="#fff">
                <use xlink:href="#junfk1vj2a"/>
            </mask>
            <path d="M2.957 1.192H.597A.596.596 0 1 1 .596 0h2.36a.596.596 0 1 1 0 1.192" fill="#0172D0" mask="url(#59aktozk3b)"/>
        </g>
        <path d="M27.13 34.74h2.36a.596.596 0 1 0 0-1.191h-2.36a.596.596 0 1 0 0 1.191" fill="#0172D0"/>
        <path d="M46.777 19.03c.33 0 .597-.267.597-.596v-2.628a.596.596 0 1 0-1.193 0v2.628c0 .33.267.596.596.596M46.777 23.629c.33 0 .597-.267.597-.597v-2.627a.596.596 0 1 0-1.193 0v2.627c0 .33.267.597.596.597M43.089 20.015h2.36a.596.596 0 1 0 0-1.191h-2.36a.596.596 0 1 0 0 1.191M48.105 20.015h2.36a.596.596 0 1 0 0-1.191h-2.36a.596.596 0 1 0 0 1.191" fill="#FFAC00"/>
    </g>
</svg>
