<svg width="129" height="219" viewBox="0 0 129 219" xmlns="http://www.w3.org/2000/svg" xmlns:xlink="http://www.w3.org/1999/xlink">
    <defs>
        <path d="M2.59 0c-9.453 23.968 10.015 41.41 10.015 41.41C22.956 21.606 16.557 0 16.557 0H2.59z" id="um7r5tqfma"/>
        <path d="M.109 0s-.682 15.278 1.367 28.582c2.635 3.678 4.935 5.739 4.935 5.739a48.502 48.502 0 0 0 1.77-3.773c.044-.13.084-.26.121-.385C9.01 27.748 3.598 0 3.598 0H.108z" id="5282fipbwc"/>
        <path id="ci23prd0qf" d="m0 5.852 6.64-2.927L1.912 0z"/>
        <path id="g72e7sy60h" d="m0 6.189 7.877 2.926L9.24 3.263 7.54 0z"/>
        <path d="m5.437 5.214-2.746 5.444s-2.757 2.629-2.69 4.815c.114 3.677 11.354 1.26 12.362-1.766 1.01-3.027 1.918-3.742 1.918-3.742s1.836-1.207 1.836-3.225L16.13 0S13.024 3.755 5.437 5.214z" id="0hfvv72s5j"/>
        <path d="M.632 11.858S-2.722 35.572 6.023 63.49l8.073 35.277-1.01 5.76 2.258 1.851s10.862-.168 10.693-5.214l-1.849-4.71 1.851-1.849-7.906-34.815 2.145-32.544L13.29 0 .63 11.858z" id="ml66llflwl"/>
        <path d="M.632 11.858S-2.722 35.572 6.023 63.49l8.073 35.277-1.01 5.76 2.258 1.851s10.862-.168 10.693-5.214l-1.849-4.71 1.851-1.849-7.906-34.815 2.145-32.544L13.29 0 .63 11.858z" id="hzdvr8dr6n"/>
        <path d="m9.75 25.396 5.002 10.865 5.928 21.948L4.282 89.366S1.395 87.858.6 90.064c-2.793 7.753 5.07 17.718 5.07 17.718s16.776-24.345 23.082-32.544c6.308-8.2 6.056-12.615 6.056-12.615L31.5 12.042 9.75 0v25.396z" id="3q0curxuhp"/>
        <path d="M1.698 0A1.47 1.47 0 0 0 .245 1.21c-.32 1.854-.615 5.609 1.11 9.594 2.439 5.634-2.943 10.344-.252 16.566 2.69 6.223 5.802 6.56 5.802 6.56a2.556 2.556 0 0 0 2.549-2.362l1.109-14.499S3.586 7.949 5.287 0h-3.59z" id="ynnehgi7hr"/>
        <path id="l91junihjt" d="m0 1.14 1.575 3.024h3.49l1.45-2.705L2.589 0z"/>
        <path d="m0 20.818 6.042 5.179 1.272 3.148 3.45.9L1.763 45.8l8.103 6.194 12.086-21.391a4.173 4.173 0 0 0-.424-4.722L0 0c1.081 9.186 0 20.818 0 20.818" id="cy6cajgujw"/>
        <path d="m0 20.818 6.042 5.179 1.272 3.148 3.45.9L1.763 45.8l8.103 6.194 12.086-21.391a4.173 4.173 0 0 0-.424-4.722L0 0c1.081 9.186 0 20.818 0 20.818z" id="0b3y85qshy"/>
        <path id="ckkihch7hA" d="M0 2.307 7.054 7.82l1.648-2.305L1.538 0z"/>
        <path d="m17.667 21.044-3.376 8.871-11.628-.545S3.6 37.134 0 39.498a1.88 1.88 0 0 0 1.767 1.238h17.925s7.228-.531 9.07-15.626L20.48 0l-2.812 21.044z" id="tx0n4ebykC"/>
        <path d="m17.667 21.044-3.376 8.871-11.628-.545S3.6 37.134 0 39.498a1.88 1.88 0 0 0 1.767 1.238h17.925s7.228-.531 9.07-15.626L20.48 0" id="5y5jccs99E"/>
        <path d="M0 8.477v.338c0 .848.688 1.538 1.538 1.538C5.476 6.6 4.201.225 4.201.225L1.538 0C3.227 5.176 0 8.477 0 8.477" id="rue9gfbx9G"/>
        <path d="M0 22.4c0 12.372 10.03 22.402 22.4 22.402 12.372 0 22.4-10.03 22.4-22.402C44.8 10.03 34.773 0 22.4 0 10.03 0 0 10.03 0 22.4" id="vlptn4819I"/>
        <path d="M0 16.8c0 9.278 7.521 16.8 16.8 16.8 9.278 0 16.8-7.522 16.8-16.8C33.6 7.52 26.078 0 16.8 0 7.52 0 0 7.521 0 16.8" id="6r4fi2p3uL"/>
        <path d="m5.608.026.02 1.958c-1.891.226-3.305.788-4.243 1.682C.447 4.562-.014 5.795 0 7.366c.01 1.029.176 1.887.5 2.575.323.688.835 1.307 1.537 1.857s1.62 1.045 2.758 1.483a40.9 40.9 0 0 1 2.412.976c.597.272 1.022.516 1.279.732.256.217.386.482.39.796.003.457-.17.786-.521.984-.35.198-.905.302-1.663.309-.92.008-1.989-.17-3.205-.535A18.642 18.642 0 0 1 .1 15.168l.044 4.742a15.07 15.07 0 0 0 5.662 1.348l.026 2.673 2.77-.027-.025-2.757c1.818-.256 3.198-.887 4.139-1.896.941-1.01 1.404-2.315 1.39-3.914-.014-1.42-.432-2.576-1.251-3.468-.821-.894-2.167-1.683-4.039-2.37-.923-.326-1.643-.611-2.164-.86-.52-.246-.886-.472-1.097-.674a1.051 1.051 0 0 1-.322-.776c-.003-.362.139-.638.427-.826.29-.189.79-.286 1.504-.293 1.5-.014 3.186.418 5.06 1.296l1.554-4.087c-1.81-.811-3.603-1.262-5.38-1.35L8.378 0l-2.77.026z" id="cxio4zi97O"/>
        <path d="m5.608.026.02 1.957c-1.891.227-3.305.79-4.243 1.683C.447 4.562-.014 5.795 0 7.366c.01 1.029.176 1.887.5 2.575.323.687.835 1.307 1.537 1.857s1.62 1.045 2.758 1.482a41.44 41.44 0 0 1 2.412.977c.597.272 1.022.515 1.279.732.256.217.386.482.388.796.005.457-.168.786-.52.984-.35.199-.904.302-1.662.309-.92.008-1.989-.17-3.205-.535A18.578 18.578 0 0 1 .1 15.168l.044 4.742a15.07 15.07 0 0 0 5.662 1.348l.026 2.673 2.77-.026-.025-2.758c1.818-.256 3.198-.887 4.139-1.897.941-1.009 1.404-2.314 1.39-3.913-.014-1.42-.432-2.575-1.251-3.468-.821-.894-2.167-1.683-4.039-2.371-.923-.324-1.643-.61-2.164-.859-.52-.246-.885-.472-1.097-.674a1.051 1.051 0 0 1-.322-.776c-.003-.362.14-.638.427-.826.29-.189.79-.286 1.504-.293 1.5-.015 3.186.418 5.06 1.296l1.554-4.087c-1.81-.812-3.603-1.262-5.38-1.35L8.378 0l-2.77.026z" id="oj34yb21dR"/>
        <path id="zun96pbs3S" d="M0 4.087v1.547l1.555-4.087V0z"/>
        <path d="M16.8 0c9.278 0 16.8 7.522 16.8 16.8 0 .262-.026.516-.038.774C33.154 8.657 25.818 1.548 16.8 1.548 7.783 1.548.446 8.658.04 17.574c-.013-.258-.04-.512-.04-.773" id="fvqcoata6V"/>
        <linearGradient x1="50.003%" y1="83.641%" x2="50.003%" y2="-16.36%" id="gu7yecwecd">
            <stop stop-color="#E980B1" offset="0%"/>
            <stop stop-color="#F7BACF" offset="100%"/>
        </linearGradient>
        <linearGradient x1="49.993%" y1="99.998%" x2="49.993%" y2=".004%" id="nrw3e1ijpu">
            <stop stop-color="#F7BACF" offset="0%"/>
            <stop stop-color="#E980B1" offset="100%"/>
        </linearGradient>
        <linearGradient x1="50%" y1="-2.584%" x2="50%" y2="77.216%" id="2gkx1yu17J">
            <stop stop-color="#FBD123" offset="0%"/>
            <stop stop-color="#FFA33F" offset="100%"/>
        </linearGradient>
        <linearGradient x1="49.999%" y1="-14.929%" x2="49.999%" y2="66.808%" id="g8num71mhM">
            <stop stop-color="#FFA33F" offset="0%"/>
            <stop stop-color="#FBD123" offset="100%"/>
        </linearGradient>
        <linearGradient x1="50%" y1="-16.62%" x2="50%" y2="115.878%" id="ew9gyqxwdP">
            <stop stop-color="#FBD123" offset="0%"/>
            <stop stop-color="#FFA33F" offset="100%"/>
        </linearGradient>
        <linearGradient x1="49.994%" y1="-16.629%" x2="49.994%" y2="115.884%" id="jpd59ruv0T">
            <stop stop-color="#FBD123" offset="0%"/>
            <stop stop-color="#FFA33F" offset="100%"/>
        </linearGradient>
        <linearGradient x1="50.001%" y1="-14.925%" x2="50.001%" y2="66.809%" id="y5fqn76npW">
            <stop stop-color="#FFA33F" offset="0%"/>
            <stop stop-color="#FBD123" offset="100%"/>
        </linearGradient>
    </defs>
    <g fill="none" fill-rule="evenodd">
        <path d="m89.49 207.487.002-.003c0-2.99-17.979-5.413-40.156-5.413-22.178 0-40.157 2.424-40.157 5.413 0 2.95 17.51 5.347 39.282 5.41l-.001.003c0 2.989 17.978 5.412 40.156 5.412 22.177 0 40.156-2.423 40.156-5.412 0-2.95-17.509-5.347-39.281-5.41" fill="#E2E1DE" opacity=".5"/>
        <g transform="translate(66.973 27.918)">
            <mask id="0jb95f23ob" fill="#fff">
                <use xlink:href="#um7r5tqfma"/>
            </mask>
            <path d="M2.59 0c-9.453 23.968 10.015 41.41 10.015 41.41C22.956 21.606 16.557 0 16.557 0H2.59z" mask="url(#0jb95f23ob)"/>
        </g>
        <g transform="translate(73.166 35.007)">
            <mask id="f8fxbfm58e" fill="#fff">
                <use xlink:href="#5282fipbwc"/>
            </mask>
            <path d="M.109 0s-.682 15.278 1.367 28.582c2.635 3.678 4.935 5.739 4.935 5.739a48.502 48.502 0 0 0 1.77-3.773c.044-.13.084-.26.121-.385C9.01 27.748 3.598 0 3.598 0H.108z" fill="url(#gu7yecwecd)" mask="url(#f8fxbfm58e)"/>
        </g>
        <g transform="translate(67.649 27.918)">
            <mask id="ifpq43ookg" fill="#fff">
                <use xlink:href="#ci23prd0qf"/>
            </mask>
            <path mask="url(#ifpq43ookg)" d="m0 5.852 6.64-2.927L1.912 0z"/>
        </g>
        <g transform="translate(74.288 24.655)">
            <mask id="o7t2tg4mri" fill="#fff">
                <use xlink:href="#g72e7sy60h"/>
            </mask>
            <path mask="url(#o7t2tg4mri)" d="m0 6.189 7.877 2.926L9.24 3.263 7.54 0z"/>
        </g>
        <path d="M87.134 202.634s1.836-1.207 1.836-3.225v-1.792c0 2.018-3.101 2.509-3.101 2.509v2.508h1.265zM85.217 204.585c-.94 2.82-10.754 5.106-12.185 2.434a3.25 3.25 0 0 0-.177 1.124c.114 3.675 11.353 1.261 12.362-1.766v-1.792z" fill="#322F49"/>
        <path d="m78.282 196.091-2.746 5.444s-2.756 2.63-2.69 4.815c.115 3.677 11.353 1.262 12.363-1.766 1.01-3.027 1.917-3.741 1.917-3.741s1.837-1.208 1.837-3.226l.013-6.74s-3.107 3.755-10.694 5.214" fill="#454062"/>
        <g transform="translate(72.846 190.877)">
            <mask id="g4wc374sok" fill="#fff">
                <use xlink:href="#0hfvv72s5j"/>
            </mask>
            <path d="M18.288-1.766s.253 8.698-14.464 8.506l3.28-5.058 11.184-3.448z" fill="#322F49" mask="url(#g4wc374sok)"/>
        </g>
        <path d="M63.57 101.57s-3.354 23.715 5.392 51.633l8.073 35.277-1.01 5.76 2.257 1.851s10.862-.168 10.694-5.214l-1.85-4.71 1.852-1.849-7.907-34.815 2.144-32.544-6.986-27.246L63.57 101.57z" fill="#53537C"/>
        <g transform="translate(62.938 89.712)">
            <mask id="lqfdr3pwfm" fill="#fff">
                <use xlink:href="#ml66llflwl"/>
            </mask>
            <path d="M22.316 56.653c-.423.757-20.67 28.508-20.67 28.508l12.45 13.607L26.04 77.533l-3.723-20.88z" fill="#454062" mask="url(#lqfdr3pwfm)"/>
        </g>
        <g transform="translate(62.938 89.712)">
            <mask id="qnr0d3f34o" fill="#fff">
                <use xlink:href="#hzdvr8dr6n"/>
            </mask>
            <path fill="#454062" mask="url(#qnr0d3f34o)" d="m-4.854 21.444 20.197 1.425 5.959 16.235-5.18-45.531-25.77 22.766z"/>
        </g>
        <path d="m99.963 92.74 3.31 50.583s.251 4.414-6.056 12.614c-6.307 8.198-23.084 32.544-23.084 32.544s-7.862-9.966-5.069-17.719c.795-2.206 3.682-.698 3.682-.698l16.398-31.157-5.928-21.948-5.001-10.865V80.698L99.963 92.74z" fill="#53537C"/>
        <g transform="translate(68.464 80.698)">
            <mask id="4ii7n8u31q" fill="#fff">
                <use xlink:href="#3q0curxuhp"/>
            </mask>
            <path d="m15.776 41.428-2.24-23.205 5.35 12.74s12.487 3.28 17.814-9.81L20.514.026 4.112 15.832l11.664 25.596z" fill="#454062" mask="url(#4ii7n8u31q)"/>
        </g>
        <path d="M63.193 198.782c2.426 6.331 5.803 6.56 5.803 6.56h1.792s-3.112-.337-5.803-6.56c-1.346-3.112-.673-5.845.031-8.504 0 0-3.563 3.963-1.823 8.504M65.237 182.216c-1.725-3.987-1.43-7.74-1.11-9.595.122-.703.74-1.21 1.454-1.21h-1.793c-.714 0-1.331.507-1.453 1.21-.32 1.855-.615 5.608 1.11 9.595h1.792z" fill="#322F49"/>
        <path d="M68.858 171.412h-3.59c-.714 0-1.332.506-1.453 1.21-.32 1.854-.615 5.608 1.11 9.594 2.44 5.634-2.943 10.343-.252 16.566 2.691 6.223 5.802 6.56 5.802 6.56a2.557 2.557 0 0 0 2.55-2.362l1.109-14.5s-6.977-9.119-5.276-17.068" fill="#454062"/>
        <g transform="translate(63.57 171.412)">
            <mask id="pk2hrp3u0s" fill="#fff">
                <use xlink:href="#ynnehgi7hr"/>
            </mask>
            <path d="M3.765-1.726S1.578 14 11.669 18.204L5.7-3.996l-1.934 2.27z" fill="#322F49" mask="url(#pk2hrp3u0s)"/>
        </g>
        <path d="m69.562 27.918-7.954 6.767-8.475 2.348 10.803 32.746s-3.489 20.592-2.589 33.87h18.005l1.238-15.078 6.639 15.079s11.928 1.913 14.967-10.016L96.569 77.88l5.627-28.357s2.475-12.153 0-20.818l-7.09.507-11.577-1.294s6.4 21.605-3.952 41.41c0 0-19.467-17.442-10.015-41.41" fill="#53537C"/>
        <g transform="translate(71.7 30.843)">
            <mask id="o943rpwlvv" fill="#fff">
                <use xlink:href="#l91junihjt"/>
            </mask>
            <path fill="url(#nrw3e1ijpu)" mask="url(#o943rpwlvv)" d="m0 1.14 1.575 3.024h3.49l1.45-2.705L2.589 0z"/>
        </g>
        <path d="M67.931 3.847s-3.058 12.922 0 18.051h1.965v6.02l4.392 2.926 7.354-6.19v-6.9s1.973-2.76 1.38-4.93c-.59-2.17-2.17 0-2.17 0V3.846h-12.92z" fill="#FCBDA9"/>
        <path d="M67.861 4.439h9.047l-.223 1.11a4.081 4.081 0 0 0 1.922 4.31l.175.104v1.658a1.384 1.384 0 0 0 2.07 1.202s1.48-1.874 2.17 0c0 0 .495 2.071-1.38 4.932a15.025 15.025 0 0 0 2.861-8.82V5.229S84.108 0 78.881 0H67.86a2.22 2.22 0 0 0 0 4.439" fill="#322F49"/>
        <path d="m102.195 28.705 21.527 25.88a4.173 4.173 0 0 1 .425 4.722L112.06 80.698l-8.102-6.194 9.003-15.754-3.451-.9-1.273-3.148-6.042-5.179s1.083-11.63 0-20.818" fill="#53537C"/>
        <g transform="translate(102.196 28.705)">
            <mask id="oyngfp1bnx" fill="#fff">
                <use xlink:href="#cy6cajgujw"/>
            </mask>
            <path d="M1.106 23.462s4.006-5.157 1.006-17.16L0 20.818" fill="#454062" mask="url(#oyngfp1bnx)"/>
        </g>
        <g transform="translate(102.196 28.705)">
            <mask id="we5oo8k8hz" fill="#fff">
                <use xlink:href="#0b3y85qshy"/>
            </mask>
            <path fill="#454062" mask="url(#we5oo8k8hz)" d="m6.042 25.997 2.885 1.498 5.188-3.301-3.35 5.85-5.971 1.502z"/>
        </g>
        <g transform="translate(102.42 74.504)">
            <mask id="mf011hgvaB" fill="#fff">
                <use xlink:href="#ckkihch7hA"/>
            </mask>
            <path mask="url(#mf011hgvaB)" d="M0 2.307 7.054 7.82l1.648-2.305L1.538 0z"/>
        </g>
        <path d="m102.42 76.811-5.589.394-.262.675 2.93 8.206 4.513-2.4c.36-.193.679-.456.935-.774l2.042-2.53-4.569-3.57z" fill="#FCBDA9"/>
        <path d="M53.133 37.032 50.32 58.075l-3.376 8.873-11.627-.546s.937 7.765-2.664 10.128a1.88 1.88 0 0 0 1.767 1.238h17.925s7.228-.531 9.072-15.627l-8.284-25.109z" fill="#53537C"/>
        <g>
            <g transform="translate(32.653 37.032)">
                <mask id="gc66735t6D" fill="#fff">
                    <use xlink:href="#tx0n4ebykC"/>
                </mask>
                <path fill="#454062" mask="url(#gc66735t6D)" d="M28.763 25.11 22.908 7.36l5.028 22.374z"/>
            </g>
            <g transform="translate(32.653 37.032)">
                <mask id="spjy386aoF" fill="#fff">
                    <use xlink:href="#5y5jccs99E"/>
                </mask>
                <path fill="#454062" mask="url(#spjy386aoF)" d="m14.29 29.916 6.19 2.508-7.131-6.704-.376 4.134"/>
            </g>
        </g>
        <g transform="translate(31.115 66.178)">
            <mask id="693yvoi2oH" fill="#fff">
                <use xlink:href="#rue9gfbx9G"/>
            </mask>
            <path d="M0 8.477v.338c0 .848.688 1.538 1.538 1.538C5.476 6.6 4.201.225 4.201.225L1.538 0C3.227 5.176 0 8.477 0 8.477" mask="url(#693yvoi2oH)"/>
        </g>
        <path d="m31.793 73.76-5.78-5.482-12.078-2.851 15.305-.274c.824-.014 1.5.65 1.5 1.474l2.279 1.046s.797 3.156-1.226 6.087" fill="#FCBDA9"/>
        <g transform="translate(0 10.524)">
            <mask id="qlelbrakjK" fill="#fff">
                <use xlink:href="#vlptn4819I"/>
            </mask>
            <path d="M0 22.4c0 12.372 10.03 22.402 22.4 22.402 12.372 0 22.4-10.03 22.4-22.402C44.8 10.03 34.773 0 22.4 0 10.03 0 0 10.03 0 22.4" fill="url(#2gkx1yu17J)" mask="url(#qlelbrakjK)"/>
        </g>
        <g transform="translate(5.601 16.125)">
            <mask id="aibxmio2yN" fill="#fff">
                <use xlink:href="#6r4fi2p3uL"/>
            </mask>
            <path d="M0 16.8c0 9.278 7.521 16.8 16.8 16.8 9.278 0 16.8-7.522 16.8-16.8C33.6 7.52 26.078 0 16.8 0 7.52 0 0 7.521 0 16.8" fill="url(#g8num71mhM)" mask="url(#aibxmio2yN)"/>
        </g>
        <g transform="translate(16.142 22.522)">
            <mask id="delz4phjlQ" fill="#fff">
                <use xlink:href="#cxio4zi97O"/>
            </mask>
            <path d="m5.608.026.02 1.958c-1.891.226-3.305.788-4.243 1.682C.447 4.562-.014 5.795 0 7.366c.01 1.029.176 1.887.5 2.575.323.688.835 1.307 1.537 1.857s1.62 1.045 2.758 1.483a40.9 40.9 0 0 1 2.412.976c.597.272 1.022.516 1.279.732.256.217.386.482.39.796.003.457-.17.786-.521.984-.35.198-.905.302-1.663.309-.92.008-1.989-.17-3.205-.535A18.642 18.642 0 0 1 .1 15.168l.044 4.742a15.07 15.07 0 0 0 5.662 1.348l.026 2.673 2.77-.027-.025-2.757c1.818-.256 3.198-.887 4.139-1.896.941-1.01 1.404-2.315 1.39-3.914-.014-1.42-.432-2.576-1.251-3.468-.821-.894-2.167-1.683-4.039-2.37-.923-.326-1.643-.611-2.164-.86-.52-.246-.886-.472-1.097-.674a1.051 1.051 0 0 1-.322-.776c-.003-.362.139-.638.427-.826.29-.189.79-.286 1.504-.293 1.5-.014 3.186.418 5.06 1.296l1.554-4.087c-1.81-.811-3.603-1.262-5.38-1.35L8.378 0l-2.77.026z" fill="url(#ew9gyqxwdP)" mask="url(#delz4phjlQ)"/>
        </g>
        <g transform="translate(28.366 24.254)">
            <mask id="7o8o8qkboU" fill="#fff">
                <use xlink:href="#zun96pbs3S"/>
            </mask>
            <path fill="url(#jpd59ruv0T)" mask="url(#7o8o8qkboU)" d="M0 4.087v1.547l1.555-4.087V0z"/>
        </g>
        <g transform="translate(5.6 16.124)">
            <mask id="p37uwbabmX" fill="#fff">
                <use xlink:href="#fvqcoata6V"/>
            </mask>
            <path d="M16.8 1.548c9.018 0 16.354 7.11 16.762 16.026.012-.258.038-.512.038-.774C33.6 7.522 26.078 0 16.8 0S0 7.522 0 16.801c0 .26.027.515.04.773C.445 8.657 7.782 1.548 16.8 1.548" fill="url(#y5fqn76npW)" mask="url(#p37uwbabmX)"/>
        </g>
    </g>
</svg>
